<svg width="104" height="104" viewBox="0 0 104 104" fill="none" xmlns="http://www.w3.org/2000/svg">
<mask id="mask0_328_262" style="mask-type:luminance" maskUnits="userSpaceOnUse" x="0" y="0" width="104" height="104">
<path d="M0 0H104V104H0V0Z" fill="white"/>
</mask>
<g mask="url(#mask0_328_262)">
<mask id="mask1_328_262" style="mask-type:luminance" maskUnits="userSpaceOnUse" x="0" y="0" width="104" height="104">
<path d="M52 0C23.2803 0 0 23.2827 0 52C0 80.7197 23.2803 104 52 104C80.7197 104 104 80.7197 104 52C104 23.2827 80.7197 0 52 0Z" fill="white"/>
</mask>
<g mask="url(#mask1_328_262)">
<path d="M0 0H104V104H0V0Z" fill="#F8FCFF"/>
</g>
</g>
<mask id="mask2_328_262" style="mask-type:luminance" maskUnits="userSpaceOnUse" x="30" y="32" width="55" height="32">
<path d="M30.4419 32.6765H84.2922V63.0401H30.4419V32.6765Z" fill="white"/>
</mask>
<g mask="url(#mask2_328_262)">
<path d="M57.4012 32.7665C65.3337 32.7665 73.2662 32.7641 81.1987 32.7617C81.8842 32.7617 82.5413 32.7949 83.1462 33.1697C83.9029 33.637 84.3797 34.5883 84.2279 35.4517C83.6823 38.545 83.1154 41.6336 82.5698 44.7292C81.8913 48.5721 81.2153 52.415 80.544 56.2603C80.487 56.5687 80.4064 56.8723 80.3328 57.1783C80.0126 58.4688 79.3128 59.1092 78.001 59.2184C75.4486 59.4271 72.8914 59.5955 70.3389 59.8066C67.6086 60.0344 64.883 60.2953 62.155 60.5373C60.9903 60.6393 59.8256 60.7342 58.6632 60.8219C55.8783 61.0283 53.1029 61.2181 50.3251 61.4316C46.876 61.6973 43.4269 61.9724 39.9801 62.2595C39.1285 62.3259 38.2817 62.4635 37.4324 62.4753C36.2202 62.4919 35.3686 61.8277 35.1219 60.6274C34.7258 58.6941 34.4008 56.7489 34.0474 54.8085C33.2527 50.439 32.458 46.0695 31.6657 41.7024C31.3075 39.7169 30.9422 37.7314 30.5911 35.7459C30.3041 34.1115 31.3739 32.8281 33.0653 32.7783C33.7864 32.757 34.5076 32.7736 35.2287 32.7736L57.4012 32.7665ZM47.5971 44.0911H45.3056C45.2605 44.0911 45.2131 44.0911 45.1704 44.0911C44.0318 44.0864 43.9155 43.9464 44.0128 45.2369C44.1243 46.7551 44.2286 48.2756 44.3544 49.7962C44.4113 50.4556 44.5607 50.5719 45.2036 50.5292C46.2782 50.4604 47.3504 50.3868 48.4226 50.3062C49.1343 50.254 49.8459 50.171 50.5599 50.1283C51.0249 50.0998 51.3522 50.0286 51.1625 49.4261C51.0842 49.1794 51.1364 48.89 51.1316 48.6196C51.1103 47.322 51.0794 46.0149 51.0771 44.7103C51.0771 44.2429 50.8778 44.0793 50.4271 44.0864C49.4853 44.103 48.5412 44.0911 47.5971 44.0911ZM57.6527 35.7245C56.5757 35.7245 55.4964 35.7364 54.4194 35.7198C53.9687 35.7127 53.76 35.8692 53.7861 36.3413C53.8667 37.8619 53.9284 39.3848 53.9995 40.9053C54.0162 41.2374 54.2012 41.3703 54.5238 41.3703C55.0623 41.3655 55.6008 41.3703 56.1392 41.3703C57.6242 41.3703 59.1068 41.3632 60.5846 41.3703C61.0045 41.3703 61.2987 41.2327 61.3105 40.7772C61.3437 39.2496 61.3675 37.7243 61.3864 36.199C61.3864 35.874 61.2204 35.7174 60.8859 35.7198C59.809 35.7293 58.7296 35.7245 57.6527 35.7245ZM68.408 35.7245C67.3287 35.7245 66.2517 35.734 65.1748 35.7245C64.698 35.7198 64.3848 35.8716 64.3777 36.3982C64.354 37.8832 64.3374 39.3611 64.3089 40.8413C64.3018 41.254 64.5153 41.3774 64.8925 41.375C66.9586 41.3703 69.0224 41.375 71.0885 41.375C71.3946 41.375 71.6128 41.2635 71.6389 40.9267C71.7504 39.4109 71.8548 37.8927 71.9734 36.3745C72.0089 35.9214 71.8405 35.7174 71.3708 35.7245C70.384 35.7388 69.3948 35.7269 68.408 35.7245ZM47.1037 35.7245C46.0244 35.7245 44.9474 35.7127 43.8681 35.7293C43.2205 35.7411 43.1778 35.7649 43.2205 36.4386C43.3059 37.869 43.4363 39.297 43.5431 40.7274C43.581 41.254 43.8942 41.3774 44.3662 41.3774C46.2995 41.3632 48.2305 41.3584 50.1614 41.3821C50.6785 41.3869 50.8944 41.2161 50.8825 40.6918C50.8446 39.2543 50.8137 37.8144 50.8209 36.3793C50.8209 35.8076 50.5362 35.7151 50.0689 35.7222C49.0797 35.734 48.0905 35.7245 47.1037 35.7245ZM57.6954 44.0911C56.7062 44.0911 55.7146 44.1006 54.7278 44.0864C54.3079 44.0816 54.0351 44.1647 54.0612 44.6723C54.1419 46.2854 54.2059 47.9008 54.2771 49.5162C54.2913 49.8341 54.4431 50.0073 54.7871 49.9883C56.4002 49.8934 58.0156 49.8151 59.6287 49.7179C59.9418 49.6989 60.2478 49.6016 60.5586 49.5732C60.9666 49.5376 61.0662 49.2956 61.0686 48.9327C61.0804 47.5402 61.0852 46.1407 61.135 44.7458C61.1563 44.167 60.8741 44.0745 60.3996 44.084C59.4982 44.103 58.5968 44.0911 57.6954 44.0911ZM67.8173 44.0911C66.7831 44.0911 65.7488 44.0959 64.7122 44.0911C64.3493 44.0911 64.112 44.1836 64.1097 44.6154C64.0954 46.0529 64.067 47.4904 64.0456 48.9327C64.0385 49.3407 64.2306 49.4712 64.6339 49.4427C66.0264 49.3502 67.4117 49.2909 68.8018 49.2007C69.3379 49.1675 69.8693 49.0679 70.403 49.03C70.7398 49.0039 70.8751 48.8165 70.9201 48.5223C70.9747 48.1689 71.0387 47.8178 71.0719 47.462C71.155 46.5677 71.2119 45.6734 71.302 44.7814C71.359 44.1955 71.3092 44.1077 70.6521 44.0959C69.708 44.0769 68.7662 44.0888 67.8173 44.0888V44.0911ZM38.1061 44.0911C37.4751 44.0911 36.8441 44.0816 36.2131 44.0911C35.2975 44.1077 35.2453 44.122 35.3734 44.9925C35.6343 46.7693 35.9498 48.5365 36.2606 50.3038C36.3151 50.624 36.4717 50.9063 36.8773 50.8921C38.1369 50.8494 39.3989 50.8375 40.6538 50.7403C41.3204 50.6905 41.3963 50.5552 41.356 49.865C41.2587 48.2922 41.1259 46.7242 41.0025 45.1562C40.9907 45.0234 40.9076 44.8977 40.9005 44.7648C40.8673 44.2809 40.6657 44.0461 40.1343 44.0793C39.4606 44.122 38.7822 44.0911 38.1061 44.0888V44.0911ZM51.4092 55.7052H51.3356C51.3356 54.939 51.3451 54.1728 51.3356 53.4089C51.3309 52.9535 51.0937 52.7827 50.6311 52.8515C50.0997 52.925 49.5589 52.9535 49.0228 52.9891C47.8177 53.0745 46.6032 53.167 45.3934 53.2239C44.9118 53.2453 44.7719 53.4659 44.8074 53.9047C44.9284 55.3826 45.0352 56.8604 45.149 58.3383C45.1846 58.8032 45.5286 58.7771 45.8441 58.7582C47.5046 58.649 49.1604 58.5209 50.8209 58.4284C51.3024 58.4 51.4258 58.1604 51.4163 57.7358C51.3997 57.0573 51.4092 56.3813 51.4092 55.7052ZM36.9011 35.7269C36.0495 35.7269 35.1978 35.7411 34.3462 35.7198C33.8671 35.7103 33.6963 35.9072 33.7817 36.3698C34.0497 37.8168 34.3273 39.2638 34.5692 40.7156C34.6546 41.2256 34.9227 41.3798 35.3947 41.375C36.92 41.3655 38.4453 41.3608 39.9683 41.375C40.4617 41.3798 40.5874 41.1425 40.5518 40.7108C40.4356 39.2851 40.3193 37.8571 40.2197 36.4314C40.1865 35.9333 39.9635 35.7103 39.4582 35.7222C38.6066 35.7388 37.7527 35.7269 36.9011 35.7269ZM60.8622 55.1003C60.8622 54.2606 60.8693 53.4943 60.8622 52.7281C60.8622 52.4103 60.7175 52.2822 60.3498 52.3083C59.0949 52.4008 57.8353 52.4364 56.5781 52.517C55.9969 52.5526 55.4205 52.6617 54.8393 52.6949C54.4218 52.721 54.3198 52.9345 54.3269 53.3069C54.3554 54.5689 54.3625 55.8309 54.391 57.0929C54.3957 57.3135 54.4194 57.5626 54.5285 57.7405C54.6211 57.8947 54.8488 58.0655 55.0077 58.0584C56.1297 58.0086 57.2541 57.9398 58.3691 57.8212C59.159 57.7381 59.9394 57.5721 60.7246 57.4416C60.7697 56.6351 60.8171 55.8309 60.8622 55.1003ZM63.8298 54.799H63.7942C63.7942 55.385 63.7871 55.9709 63.7942 56.5544C63.806 57.3349 63.8132 57.3704 64.5201 57.3135C66.2636 57.1712 68.0024 56.9933 69.7435 56.832C70.0424 56.8059 70.2441 56.7086 70.2702 56.3599C70.3627 55.1074 70.4908 53.8549 70.5619 52.6048C70.607 51.8054 70.4979 51.7366 69.7459 51.8101C69.2999 51.8504 68.854 51.886 68.4056 51.9026C67.4615 51.9382 66.5127 51.9169 65.5733 51.9999C63.8559 52.1541 63.8582 52.1778 63.8298 53.8549C63.8274 54.168 63.8321 54.4812 63.8321 54.7967L63.8298 54.799ZM78.1623 35.7269C77.4412 35.7269 76.7224 35.7174 76.0013 35.7269C75.2066 35.7388 75.1473 35.7388 75.05 36.4979C74.8698 37.9212 74.7725 39.3516 74.6302 40.782C74.5946 41.1686 74.7393 41.3703 75.152 41.3679C76.5943 41.3632 78.0342 41.3584 79.4741 41.375C79.9699 41.3798 80.2024 41.1781 80.283 40.6871C80.525 39.2282 80.7954 37.7765 81.0611 36.3223C81.1322 35.9285 81.0231 35.7198 80.5985 35.7222C79.7825 35.7317 78.9688 35.7269 78.1623 35.7269ZM42.1222 58.2695C42.0249 56.9696 41.93 55.672 41.8233 54.372C41.8067 54.1965 41.7118 54.0257 41.6928 53.8502C41.6501 53.4516 41.4461 53.3236 41.0547 53.3544C39.935 53.4422 38.813 53.5038 37.6934 53.5774C36.9936 53.6248 36.9058 53.7078 37.0197 54.3934C37.2735 55.8973 37.5605 57.3965 37.8262 58.8981C37.8902 59.2682 38.0776 59.4651 38.4643 59.4342C39.4037 59.3631 40.3454 59.2848 41.2848 59.2136C42.1649 59.1448 42.1649 59.1472 42.1222 58.2719V58.2695ZM77.0593 44.0911C76.3381 44.0911 75.617 44.0982 74.8982 44.0911C74.4997 44.084 74.3479 44.2667 74.3194 44.6533C74.2269 45.8584 74.1059 47.0634 74.0016 48.2756C73.9541 48.7999 74.068 48.9256 74.5566 48.8876C75.273 48.8331 75.987 48.7572 76.7034 48.7097C77.2419 48.6765 77.7899 48.7097 78.3212 48.6338C78.5371 48.603 78.855 48.3776 78.8929 48.1926C79.1349 47.0539 79.3104 45.8987 79.5097 44.7506C79.5856 44.3046 79.4385 44.0722 78.9522 44.0864C78.3212 44.103 77.6903 44.0911 77.0593 44.0911ZM74.1652 56.5307C75.1354 56.4382 76.0274 56.3457 76.9217 56.2721C77.2846 56.2413 77.5123 56.0871 77.5716 55.7147C77.797 54.391 78.0271 53.065 78.2311 51.7366C78.2477 51.6322 78.0769 51.3926 78.001 51.3974C76.656 51.459 75.311 51.5373 73.9683 51.6346C73.6291 51.6583 73.5912 51.9501 73.5698 52.2347C73.4844 53.3093 73.3824 54.3815 73.297 55.4561C73.278 55.6791 73.2282 55.9187 73.297 56.1227C73.3516 56.2864 73.5414 56.4429 73.7074 56.5141C73.8592 56.5853 74.0632 56.5307 74.1652 56.5307Z" fill="#168AE3"/>
</g>
<mask id="mask3_328_262" style="mask-type:luminance" maskUnits="userSpaceOnUse" x="19" y="21" width="63" height="51">
<path d="M19.6174 21.5203H81.4524V71.5419H19.6174V21.5203Z" fill="white"/>
</mask>
<g mask="url(#mask3_328_262)">
<path d="M58.4854 71.1717C51.5872 71.1717 44.6866 71.1574 37.7884 71.1859C36.3983 71.1907 35.2502 70.785 34.2871 69.7745C32.9373 68.3559 32.8377 66.1071 33.7984 64.3707C34.1471 63.7421 34.5409 63.1348 34.8469 62.4848C34.9987 62.1646 35.0533 61.8278 35.0059 61.4743C34.0878 56.3054 33.1342 51.1436 32.2162 45.977C31.3646 41.2042 30.5462 36.4291 29.7065 31.654C29.4289 30.0622 29.1372 28.4729 28.8786 26.8788C28.779 26.2715 28.5062 25.9513 27.8657 25.8469C26.0937 25.5575 24.3312 25.2041 22.5687 24.8791C22.0373 24.7818 21.5036 24.7107 20.9769 24.5944C20.1443 24.4094 19.6224 23.7144 19.7078 22.9434C19.8004 22.1392 20.5428 21.5343 21.4514 21.6458C22.5663 21.7858 23.667 22.0088 24.7724 22.2104C26.7128 22.5615 28.6532 22.9339 30.5984 23.2684C31.0681 23.349 31.2958 23.5364 31.3741 24.0227C31.5923 25.3511 31.8651 26.6677 32.1071 27.9913C32.8187 31.922 33.5422 35.8503 34.2349 39.7833C35.0984 44.6889 35.9263 49.6017 36.785 54.5097C37.2025 56.8937 37.6532 59.2753 38.0968 61.6522C38.213 62.2808 38.1988 62.8407 37.8098 63.4147C37.2855 64.1975 36.9368 65.0966 36.4173 65.8841C35.7982 66.8235 36.358 68.3132 37.7908 68.1851C38.1039 68.1567 38.4218 68.1851 38.7373 68.1851H79.0497C79.4102 68.1851 79.7755 68.1543 80.129 68.2065C80.3211 68.2326 80.5014 68.2943 80.6698 68.3915C80.8383 68.4888 80.983 68.6145 81.1039 68.7687C81.2225 68.9229 81.3079 69.0937 81.3625 69.2787C81.4147 69.4661 81.4313 69.6559 81.4099 69.8504C81.3364 70.664 80.8572 71.1171 79.9938 71.1646C79.6356 71.1859 79.2726 71.1741 78.9121 71.1741L58.4854 71.1717Z" fill="#168AE3"/>
</g>
<path d="M70.2915 77.4415C70.1041 75.1239 72.3316 72.4078 75.1995 72.4528C77.9322 72.4955 80.1976 74.4122 80.2356 77.3229C80.2759 80.0698 78.3806 82.3969 75.2588 82.3969C72.0113 82.3969 70.18 79.6926 70.2915 77.4415ZM75.2991 75.1642C73.9518 75.1642 72.9649 76.132 72.9863 77.4415C73.0076 78.6963 74.0751 79.7211 75.3608 79.7235C76.4141 79.7235 77.5788 78.4923 77.5693 77.3845C77.5551 76.2008 76.4995 75.1689 75.2968 75.1642H75.2991Z" fill="#168AE3"/>
<path d="M47.3456 77.4579C47.3338 80.174 45.1253 82.4537 42.5136 82.4394C39.6646 82.4252 37.5581 80.2238 37.4775 77.3678C37.4039 74.7133 39.7974 72.41 42.4566 72.4289C45.0091 72.4527 47.5805 74.7964 47.3456 77.4579ZM44.6461 77.5813C44.7031 76.2813 43.8491 75.2447 42.6583 75.1688C41.299 75.0858 40.2814 75.9682 40.1983 77.2468C40.1129 78.5633 40.9906 79.6071 42.3309 79.6759C42.478 79.6877 42.6227 79.683 42.7674 79.664C42.9121 79.6427 43.052 79.6095 43.1896 79.562C43.3272 79.5146 43.4601 79.4529 43.5858 79.3794C43.7091 79.3058 43.8277 79.2181 43.9345 79.1208C44.0436 79.0235 44.1409 78.9168 44.2263 78.7982C44.314 78.6796 44.3876 78.5562 44.4469 78.4234C44.5085 78.2905 44.556 78.153 44.5892 78.013C44.6224 77.8707 44.6414 77.726 44.6461 77.5813Z" fill="#168AE3"/>
</svg>
