<svg width="89" height="89" viewBox="0 0 89 89" fill="none" xmlns="http://www.w3.org/2000/svg">
<mask id="mask0_332_345" style="mask-type:luminance" maskUnits="userSpaceOnUse" x="0" y="0" width="89" height="89">
<path d="M0 0H88.1407V88.1407H0V0Z" fill="white"/>
</mask>
<g mask="url(#mask0_332_345)">
<mask id="mask1_332_345" style="mask-type:luminance" maskUnits="userSpaceOnUse" x="0" y="0" width="89" height="89">
<path d="M44.0703 0C19.7302 0 0 19.7322 0 44.0703C0 68.4105 19.7302 88.1407 44.0703 88.1407C68.4105 88.1407 88.1407 68.4105 88.1407 44.0703C88.1407 19.7322 68.4105 0 44.0703 0Z" fill="white"/>
</mask>
<g mask="url(#mask1_332_345)">
<path d="M0 0H88.1407V88.1407H0V0Z" fill="#168AE3"/>
</g>
</g>
<mask id="mask2_332_345" style="mask-type:luminance" maskUnits="userSpaceOnUse" x="25" y="27" width="47" height="27">
<path d="M25.7996 27.6935H71.438V53.4268H25.7996V27.6935Z" fill="white"/>
</mask>
<g mask="url(#mask2_332_345)">
<path d="M48.6481 27.7699C55.3709 27.7699 62.0937 27.7679 68.8166 27.7659C69.3976 27.7659 69.9545 27.794 70.4671 28.1117C71.1084 28.5077 71.5125 29.3139 71.3839 30.0457C70.9215 32.6673 70.441 35.2848 69.9786 37.9084C69.4036 41.1653 68.8306 44.4222 68.2617 47.6811C68.2134 47.9424 68.1451 48.1997 68.0828 48.4591C67.8113 49.5528 67.2183 50.0956 66.1065 50.188C63.9433 50.365 61.7761 50.5077 59.6129 50.6866C57.2989 50.8796 54.9889 51.1008 52.6769 51.3058C51.6898 51.3923 50.7027 51.4727 49.7176 51.5471C47.3574 51.722 45.0052 51.8828 42.651 52.0638C39.7278 52.2889 36.8047 52.5221 33.8836 52.7654C33.1618 52.8217 32.4441 52.9383 31.7244 52.9483C30.697 52.9624 29.9753 52.3995 29.7662 51.3822C29.4305 49.7437 29.1551 48.0952 28.8555 46.4507C28.182 42.7475 27.5085 39.0443 26.837 35.3431C26.5335 33.6604 26.2239 31.9777 25.9263 30.295C25.6831 28.9098 26.5898 27.8222 28.0232 27.7799C28.6344 27.7618 29.2455 27.7759 29.8567 27.7759L48.6481 27.7699ZM40.339 37.3676H38.3969C38.3587 37.3676 38.3185 37.3676 38.2823 37.3676C37.3173 37.3636 37.2188 37.245 37.3013 38.3387C37.3958 39.6253 37.4842 40.914 37.5908 42.2027C37.639 42.7616 37.7657 42.8601 38.3105 42.8239C39.2212 42.7656 40.1299 42.7033 41.0386 42.6349C41.6418 42.5907 42.2449 42.5203 42.85 42.4841C43.2441 42.46 43.5215 42.3997 43.3607 41.889C43.2943 41.68 43.3385 41.4347 43.3345 41.2055C43.3164 40.1058 43.2903 38.9981 43.2883 37.8923C43.2883 37.4963 43.1194 37.3576 42.7374 37.3636C41.9393 37.3777 41.1392 37.3676 40.339 37.3676ZM48.8612 30.2769C47.9484 30.2769 47.0337 30.2869 46.121 30.2729C45.739 30.2668 45.5621 30.3995 45.5842 30.7996C45.6525 32.0883 45.7048 33.379 45.7651 34.6676C45.7792 34.9491 45.936 35.0617 46.2094 35.0617C46.6658 35.0577 47.1222 35.0617 47.5785 35.0617C48.837 35.0617 50.0935 35.0556 51.346 35.0617C51.7019 35.0617 51.9512 34.9451 51.9612 34.5591C51.9894 33.2644 52.0095 31.9717 52.0256 30.679C52.0256 30.4035 51.8848 30.2708 51.6014 30.2729C50.6886 30.2809 49.7739 30.2769 48.8612 30.2769ZM57.9764 30.2769C57.0617 30.2769 56.1489 30.2849 55.2362 30.2769C54.8321 30.2729 54.5667 30.4015 54.5607 30.8478C54.5406 32.1064 54.5265 33.3588 54.5024 34.6133C54.4964 34.9632 54.6773 35.0677 54.997 35.0657C56.748 35.0617 58.4971 35.0657 60.2482 35.0657C60.5075 35.0657 60.6925 34.9712 60.7146 34.6857C60.8091 33.4011 60.8975 32.1144 60.998 30.8277C61.0282 30.4437 60.8855 30.2708 60.4874 30.2769C59.6511 30.2889 58.8127 30.2789 57.9764 30.2769ZM39.9208 30.2769C39.0061 30.2769 38.0934 30.2668 37.1786 30.2809C36.6298 30.291 36.5936 30.3111 36.6298 30.882C36.7022 32.0943 36.8127 33.3046 36.9032 34.5168C36.9354 34.9632 37.2007 35.0677 37.6008 35.0677C39.2393 35.0556 40.8758 35.0516 42.5123 35.0717C42.9505 35.0757 43.1335 34.931 43.1234 34.4867C43.0913 33.2684 43.0651 32.0481 43.0712 30.8318C43.0712 30.3472 42.8299 30.2688 42.4339 30.2749C41.5955 30.2849 40.7572 30.2769 39.9208 30.2769ZM48.8974 37.3676C48.059 37.3676 47.2187 37.3757 46.3823 37.3636C46.0265 37.3596 45.7953 37.4299 45.8174 37.8602C45.8857 39.2273 45.94 40.5963 46.0003 41.9654C46.0124 42.2348 46.1411 42.3816 46.4326 42.3655C47.7997 42.2851 49.1688 42.2188 50.5358 42.1363C50.8012 42.1202 51.0606 42.0378 51.3239 42.0137C51.6697 41.9835 51.7542 41.7785 51.7562 41.4709C51.7662 40.2908 51.7702 39.1046 51.8125 37.9225C51.8305 37.432 51.5913 37.3535 51.1892 37.3616C50.4253 37.3777 49.6613 37.3676 48.8974 37.3676ZM57.4758 37.3676C56.5993 37.3676 55.7227 37.3716 54.8442 37.3676C54.5366 37.3676 54.3355 37.446 54.3335 37.8119C54.3215 39.0302 54.2973 40.2485 54.2792 41.4709C54.2732 41.8167 54.436 41.9272 54.7778 41.9031C55.9579 41.8247 57.132 41.7745 58.3101 41.6981C58.7645 41.6699 59.2148 41.5855 59.6672 41.5533C59.9526 41.5312 60.0672 41.3724 60.1054 41.1231C60.1517 40.8235 60.2059 40.526 60.2341 40.2244C60.3045 39.4665 60.3527 38.7086 60.4291 37.9527C60.4773 37.4561 60.4351 37.3817 59.8782 37.3716C59.0781 37.3556 58.28 37.3656 57.4758 37.3656V37.3676ZM32.2953 37.3676C31.7606 37.3676 31.2258 37.3596 30.691 37.3676C29.915 37.3817 29.8708 37.3938 29.9793 38.1316C30.2005 39.6374 30.4679 41.1351 30.7312 42.6329C30.7775 42.9043 30.9102 43.1435 31.2539 43.1315C32.3215 43.0953 33.391 43.0852 34.4545 43.0028C35.0194 42.9606 35.0838 42.846 35.0496 42.261C34.9672 40.9281 34.8546 39.5992 34.75 38.2703C34.74 38.1577 34.6696 38.0512 34.6636 37.9386C34.6355 37.5285 34.4646 37.3294 34.0142 37.3576C33.4433 37.3938 32.8683 37.3676 32.2953 37.3656V37.3676ZM43.5697 47.2106H43.5074C43.5074 46.5613 43.5155 45.9119 43.5074 45.2645C43.5034 44.8785 43.3024 44.7338 42.9103 44.7921C42.46 44.8544 42.0016 44.8785 41.5473 44.9087C40.526 44.9811 39.4966 45.0595 38.4713 45.1077C38.0632 45.1258 37.9446 45.3128 37.9748 45.6847C38.0773 46.9372 38.1678 48.1897 38.2643 49.4422C38.2944 49.8362 38.5859 49.8141 38.8533 49.798C40.2606 49.7055 41.6639 49.597 43.0712 49.5186C43.4793 49.4945 43.5838 49.2914 43.5758 48.9315C43.5617 48.3566 43.5697 47.7836 43.5697 47.2106ZM31.274 30.2789C30.5523 30.2789 29.8306 30.291 29.1088 30.2729C28.7027 30.2648 28.558 30.4317 28.6303 30.8237C28.8575 32.0501 29.0927 33.2764 29.2978 34.5068C29.3702 34.939 29.5973 35.0697 29.9974 35.0657C31.2901 35.0577 32.5828 35.0536 33.8735 35.0657C34.2917 35.0697 34.3982 34.8687 34.3681 34.5028C34.2696 33.2945 34.171 32.0842 34.0866 30.876C34.0585 30.4538 33.8695 30.2648 33.4413 30.2749C32.7195 30.2889 31.9958 30.2789 31.274 30.2789ZM51.5813 46.698C51.5813 45.9863 51.5873 45.3369 51.5813 44.6875C51.5813 44.4182 51.4586 44.3096 51.147 44.3317C50.0835 44.4101 49.016 44.4403 47.9504 44.5086C47.4579 44.5388 46.9694 44.6313 46.4768 44.6594C46.123 44.6815 46.0365 44.8625 46.0426 45.1781C46.0667 46.2476 46.0727 47.3172 46.0968 48.3867C46.1009 48.5737 46.121 48.7848 46.2134 48.9356C46.2919 49.0662 46.4849 49.211 46.6195 49.205C47.5705 49.1627 48.5234 49.1044 49.4683 49.0039C50.1378 48.9335 50.7992 48.7928 51.4647 48.6822C51.5028 47.9987 51.5431 47.3172 51.5813 46.698ZM54.0963 46.4426H54.0661C54.0661 46.9392 54.0601 47.4358 54.0661 47.9303C54.0762 48.5918 54.0822 48.6219 54.6813 48.5737C56.159 48.4531 57.6326 48.3023 59.1083 48.1656C59.3616 48.1435 59.5325 48.061 59.5546 47.7655C59.633 46.704 59.7415 45.6425 59.8018 44.583C59.84 43.9055 59.7476 43.8472 59.1103 43.9095C58.7323 43.9437 58.3544 43.9738 57.9744 43.9879C57.1742 44.0181 56.3701 44 55.5739 44.0703C54.1184 44.201 54.1204 44.2211 54.0963 45.6425C54.0943 45.9079 54.0983 46.1732 54.0983 46.4406L54.0963 46.4426ZM66.2432 30.2789C65.6321 30.2789 65.0229 30.2708 64.4117 30.2789C63.7382 30.2889 63.688 30.2889 63.6056 30.9323C63.4528 32.1385 63.3703 33.3508 63.2497 34.5631C63.2196 34.8908 63.3422 35.0617 63.692 35.0597C64.9143 35.0556 66.1347 35.0516 67.355 35.0657C67.7752 35.0697 67.9722 34.8988 68.0405 34.4827C68.2456 33.2463 68.4748 32.0159 68.7 30.7835C68.7603 30.4498 68.6678 30.2729 68.3079 30.2749C67.6163 30.2829 66.9268 30.2789 66.2432 30.2789ZM35.699 49.3839C35.6165 48.2822 35.5361 47.1825 35.4457 46.0808C35.4316 45.932 35.3512 45.7872 35.3351 45.6385C35.2989 45.3007 35.126 45.1922 34.7943 45.2183C33.8454 45.2927 32.8944 45.345 31.9455 45.4073C31.3524 45.4475 31.2781 45.5178 31.3746 46.0989C31.5897 47.3735 31.8329 48.644 32.0581 49.9166C32.1124 50.2303 32.2712 50.3971 32.5989 50.371C33.395 50.3107 34.1932 50.2443 34.9893 50.184C35.7352 50.1257 35.7352 50.1277 35.699 49.3859V49.3839ZM65.3084 37.3676C64.6972 37.3676 64.086 37.3737 63.4769 37.3676C63.1391 37.3616 63.0105 37.5164 62.9863 37.8441C62.9079 38.8654 62.8054 39.8867 62.717 40.914C62.6767 41.3583 62.7732 41.4648 63.1874 41.4327C63.7945 41.3864 64.3997 41.3221 65.0068 41.2819C65.4632 41.2538 65.9276 41.2819 66.3779 41.2176C66.5609 41.1914 66.8303 41.0004 66.8624 40.8436C67.0675 39.8786 67.2163 38.8996 67.3851 37.9265C67.4495 37.5486 67.3248 37.3515 66.9127 37.3636C66.3779 37.3777 65.8432 37.3676 65.3084 37.3676ZM62.8557 47.9102C63.6779 47.8318 64.4338 47.7534 65.1918 47.6911C65.4994 47.665 65.6924 47.5343 65.7426 47.2187C65.9336 46.0968 66.1286 44.973 66.3015 43.8472C66.3156 43.7587 66.1708 43.5557 66.1065 43.5597C64.9666 43.612 63.8267 43.6783 62.6888 43.7607C62.4013 43.7808 62.3692 44.0281 62.3511 44.2694C62.2787 45.1801 62.1922 46.0888 62.1199 46.9995C62.1038 47.1885 62.0616 47.3916 62.1199 47.5645C62.1661 47.7032 62.3269 47.8359 62.4677 47.8962C62.5963 47.9565 62.7692 47.9102 62.8557 47.9102Z" fill="#F8FCFF"/>
</g>
<mask id="mask3_332_345" style="mask-type:luminance" maskUnits="userSpaceOnUse" x="16" y="18" width="54" height="43">
<path d="M16.6262 18.2385H69.0318V60.6322H16.6262V18.2385Z" fill="white"/>
</mask>
<g mask="url(#mask3_332_345)">
<path d="M49.5668 60.3186C43.7205 60.3186 37.8722 60.3065 32.0259 60.3307C30.8478 60.3347 29.8748 59.9909 29.0586 59.1345C27.9146 57.9322 27.8302 56.0264 28.6444 54.5547C28.94 54.022 29.2737 53.5073 29.533 52.9564C29.6617 52.685 29.7079 52.3996 29.6677 52.1C28.8897 47.7193 28.0815 43.3446 27.3035 38.966C26.5817 34.921 25.8881 30.874 25.1765 26.8271C24.9412 25.4781 24.694 24.1311 24.4748 22.7801C24.3904 22.2654 24.1592 21.994 23.6164 21.9056C22.1146 21.6603 20.6208 21.3607 19.1271 21.0853C18.6768 21.0029 18.2244 20.9426 17.7781 20.8441C17.0725 20.6872 16.6302 20.0982 16.7025 19.4448C16.781 18.7633 17.4102 18.2506 18.1802 18.3451C19.1251 18.4637 20.0579 18.6527 20.9948 18.8236C22.6393 19.1211 24.2838 19.4368 25.9324 19.7202C26.3304 19.7886 26.5234 19.9474 26.5898 20.3595C26.7747 21.4854 27.0059 22.6012 27.211 23.723C27.8141 27.0542 28.4273 30.3835 29.0143 33.7168C29.7461 37.8743 30.4478 42.0379 31.1755 46.1974C31.5294 48.2179 31.9113 50.2364 32.2873 52.2508C32.3858 52.7836 32.3737 53.258 32.044 53.7445C31.5997 54.408 31.3042 55.1699 30.8639 55.8374C30.3392 56.6335 30.8137 57.896 32.028 57.7875C32.2933 57.7634 32.5627 57.7875 32.8301 57.7875H66.9951C67.3007 57.7875 67.6103 57.7613 67.9099 57.8056C68.0727 57.8277 68.2255 57.88 68.3682 57.9624C68.511 58.0448 68.6336 58.1514 68.7362 58.282C68.8367 58.4127 68.909 58.5575 68.9553 58.7143C68.9995 58.8731 69.0136 59.0339 68.9955 59.1988C68.9332 59.8884 68.5271 60.2724 67.7953 60.3126C67.4917 60.3307 67.1841 60.3206 66.8785 60.3206L49.5668 60.3186Z" fill="#F8FCFF"/>
</g>
<path d="M59.5726 65.6321C59.4137 63.6679 61.3015 61.366 63.7321 61.4042C66.0481 61.4403 67.9681 63.0648 68.0002 65.5315C68.0344 67.8596 66.4281 69.8318 63.7824 69.8318C61.0301 69.8318 59.4781 67.5399 59.5726 65.6321ZM63.8166 63.7021C62.6746 63.7021 61.8383 64.5223 61.8564 65.6321C61.8745 66.6956 62.7792 67.5641 63.8688 67.5661C64.7615 67.5661 65.7486 66.5227 65.7405 65.5838C65.7285 64.5806 64.8338 63.7061 63.8145 63.7021H63.8166Z" fill="#F8FCFF"/>
<path d="M40.1257 65.6461C40.1157 67.948 38.244 69.88 36.0305 69.868C33.616 69.8559 31.8307 67.9902 31.7624 65.5697C31.7001 63.32 33.7286 61.3679 35.9823 61.384C38.1455 61.4041 40.3248 63.3904 40.1257 65.6461ZM37.8379 65.7506C37.8861 64.6489 37.1624 63.7704 36.1531 63.706C35.0012 63.6357 34.1387 64.3836 34.0683 65.4672C33.996 66.5829 34.7398 67.4675 35.8757 67.5258C36.0003 67.5359 36.123 67.5319 36.2456 67.5158C36.3683 67.4977 36.4869 67.4695 36.6035 67.4293C36.7201 67.3891 36.8327 67.3369 36.9392 67.2745C37.0438 67.2122 37.1443 67.1378 37.2347 67.0554C37.3272 66.973 37.4096 66.8825 37.482 66.782C37.5564 66.6815 37.6187 66.5769 37.669 66.4643C37.7213 66.3517 37.7615 66.2351 37.7896 66.1165C37.8178 65.9959 37.8338 65.8733 37.8379 65.7506Z" fill="#F8FCFF"/>
</svg>
